# xmcd
#
# Track frame offsets: 
#        150
#        14189
#        37153
#        58927
#        75132
#        102461
#        132224
#        152036
#        171624
#        190435
#        208316
#
# Disc length: 2991 seconds
#
# Revision: 0
# Processed by: cddbd v1.5.2PL0 Copyright (c) Steve Scherf et al.
# Submitted via: ExactAudioCopy v1.3
#
DISCID=a50bad0b
DTITLE=Robson Fernandes - Blue Central
DYEAR=2017
DGENRE=Blues
TTITLE0=All I Can Do
TTITLE1=I Don't Care
TTITLE2=Long Distance Call
TTITLE3=Buggin' Out
TTITLE4=Go Home 
TTITLE5=Blue Central
TTITLE6=Home For My Shoes
TTITLE7=You Are The One
TTITLE8=Pueblito
TTITLE9=Just Your Fool
TTITLE10=Like A Fool
EXTD=
EXTT0=
EXTT1=
EXTT2=
EXTT3=
EXTT4=
EXTT5=
EXTT6=
EXTT7=
EXTT8=
EXTT9=
EXTT10=
PLAYORDER=
